<?xml version="1.0" encoding="UTF-8" ?>
<!DOCTYPE svg PUBLIC "-//W3C//DTD SVG 1.1//EN" "http://www.w3.org/Graphics/SVG/1.1/DTD/svg11.dtd">
<svg width="250pt" height="191pt" viewBox="0 0 250 191" version="1.1" xmlns="http://www.w3.org/2000/svg">
<g id="#e1c1b6ff">
<path fill="#e1c1b6" opacity="1.00" d=" M 185.68 1.46 C 186.77 1.11 187.85 1.79 188.85 2.14 C 198.67 6.20 208.74 9.65 218.57 13.70 C 219.27 20.18 219.97 26.65 220.42 33.14 C 219.83 33.39 218.66 33.89 218.07 34.13 C 215.77 35.21 213.41 36.16 211.11 37.22 C 208.31 38.32 205.64 39.70 202.89 40.88 C 197.36 43.16 192.09 46.11 186.37 47.88 C 182.57 38.45 178.05 29.34 174.16 19.95 C 173.12 18.06 172.33 16.06 171.60 14.03 C 176.38 9.94 180.91 5.56 185.68 1.46 M 181.59 16.00 C 184.54 22.98 187.74 29.86 190.75 36.81 C 192.55 36.41 194.25 35.69 195.84 34.75 C 199.49 33.07 203.29 31.69 206.80 29.74 C 208.26 29.14 209.73 28.56 211.25 28.12 C 211.56 25.41 211.20 22.71 210.67 20.05 C 209.53 19.29 208.33 18.67 207.06 18.19 C 205.32 17.52 203.60 16.84 201.84 16.24 C 198.99 14.97 195.98 14.12 193.16 12.77 C 191.16 12.14 189.13 11.14 186.99 11.41 C 185.15 12.90 183.69 14.84 181.59 16.00 Z" />
<path fill="#e1c1b6" opacity="1.00" d=" M 137.71 26.75 C 146.23 24.27 155.00 22.32 163.92 22.43 C 165.34 22.22 165.79 23.85 166.28 24.83 C 167.05 27.05 168.53 29.04 168.55 31.48 C 167.11 30.91 165.63 30.66 164.10 30.75 C 143.52 31.27 123.12 39.84 109.21 55.18 C 100.99 64.14 95.12 75.10 91.85 86.79 C 90.55 93.00 89.20 99.30 89.53 105.68 C 89.68 110.83 90.55 115.92 90.80 121.06 C 92.94 128.59 94.79 136.60 99.51 143.01 C 97.30 145.24 94.98 147.35 92.66 149.47 C 91.65 145.97 89.33 143.08 88.00 139.72 C 84.52 131.15 81.64 122.20 80.95 112.93 C 81.22 104.57 80.95 96.12 82.88 87.90 C 88.70 61.15 108.50 37.93 134.11 28.19 C 135.31 27.71 136.51 27.24 137.71 26.75 Z" />
<path fill="#e1c1b6" opacity="1.00" d=" M 218.65 43.29 C 220.52 43.38 221.58 44.93 222.81 46.07 C 235.36 58.46 244.13 74.73 246.88 92.21 C 253.00 125.32 236.33 161.27 206.97 177.83 C 202.28 180.79 197.17 183.13 191.88 184.81 C 166.20 194.31 136.37 189.10 114.46 173.02 C 116.54 170.95 118.63 168.89 120.86 166.99 C 139.09 180.46 163.53 184.18 185.23 178.16 C 186.20 177.83 187.18 177.52 188.17 177.22 C 208.77 170.37 226.11 154.35 234.14 134.12 C 240.20 119.18 241.14 102.42 237.18 86.82 C 233.00 71.22 223.63 57.27 211.25 46.98 C 213.70 46.31 215.87 44.86 218.37 44.35 L 218.65 43.29 Z" />
</g>
<g id="#b2b8b8ff">
<path fill="#b2b8b8" opacity="1.00" d=" M 2.02 26.03 C 4.70 26.00 7.38 26.00 10.06 26.00 C 10.27 65.72 10.43 105.44 10.81 145.16 C 7.94 151.56 5.14 157.99 2.87 164.63 C 2.51 118.43 2.28 72.23 2.02 26.03 Z" />
<path fill="#b2b8b8" opacity="1.00" d=" M 18.00 26.00 C 28.64 26.00 39.28 26.01 49.93 26.00 C 67.60 25.27 85.20 31.51 99.36 41.94 C 97.21 43.67 96.15 46.56 93.79 47.95 C 90.24 46.49 87.31 43.86 83.86 42.19 C 74.59 37.60 64.41 34.66 54.05 34.27 C 42.04 33.73 30.02 34.12 18.00 34.00 C 18.00 31.33 18.00 28.67 18.00 26.00 Z" />
<path fill="#b2b8b8" opacity="1.00" d=" M 116.27 63.26 C 116.83 62.58 117.39 61.91 117.94 61.23 C 120.55 65.68 123.22 70.09 125.33 74.81 C 132.36 91.55 133.73 110.49 129.23 128.08 C 128.00 132.11 126.66 136.10 124.93 139.94 C 123.77 143.19 121.83 146.05 120.24 149.09 C 116.78 154.83 112.56 160.08 107.84 164.84 C 94.28 178.07 76.14 186.91 57.11 187.96 C 41.19 188.03 25.27 188.01 9.35 187.97 C 13.47 186.14 16.83 183.06 20.03 179.94 C 35.96 179.60 52.17 181.35 67.86 177.87 C 72.71 176.54 77.55 174.98 82.05 172.70 C 97.66 165.29 110.50 152.12 117.28 136.20 C 126.62 115.41 125.21 90.11 113.50 70.54 C 111.28 67.85 114.74 65.30 116.27 63.26 Z" />
<path fill="#b2b8b8" opacity="1.00" d=" M 11.33 180.31 C 12.51 179.54 13.67 179.55 14.82 180.33 C 14.08 181.34 11.42 182.11 11.33 180.31 Z" />
<path fill="#b2b8b8" opacity="1.00" d=" M 2.97 186.78 C 3.41 187.07 4.29 187.64 4.73 187.93 L 3.87 188.27 L 2.97 187.69 L 2.97 186.78 Z" />
</g>
<g id="#6c6867ff">
<path fill="#6c6867" opacity="1.00" d=" M 48.12 81.18 C 50.70 80.73 54.91 81.00 55.56 84.17 C 56.17 88.89 51.94 92.58 47.90 94.10 C 44.85 95.35 40.32 95.71 38.19 92.75 C 36.79 86.82 43.22 82.65 48.12 81.18 Z" />
<path fill="#6c6867" opacity="1.00" d=" M 25.32 122.27 C 28.61 117.59 34.91 115.58 40.39 116.89 C 36.21 125.92 30.61 134.21 25.98 143.01 C 21.89 150.68 17.66 158.30 14.31 166.34 C 12.54 170.77 10.72 175.44 11.33 180.31 C 11.42 182.11 14.08 181.34 14.82 180.33 C 20.94 175.27 26.02 169.10 30.99 162.93 C 37.88 154.18 44.57 145.28 51.27 136.39 C 52.64 134.70 53.82 132.26 56.43 132.71 C 56.01 134.34 55.17 135.79 54.19 137.14 C 43.75 152.12 32.84 166.89 20.03 179.94 C 16.83 183.06 13.47 186.14 9.35 187.97 C 7.81 188.14 6.26 188.05 4.73 187.93 C 4.29 187.64 3.41 187.07 2.97 186.78 C 0.83 184.85 0.43 181.76 0.44 179.03 C 0.52 174.14 1.49 169.30 2.87 164.63 C 5.14 157.99 7.94 151.56 10.81 145.16 C 15.27 137.30 19.91 129.52 25.32 122.27 Z" />
</g>
</svg>
