<?xml version="1.0" standalone="no"?>
<!DOCTYPE svg PUBLIC "-//W3C//DTD SVG 20010904//EN"
 "http://www.w3.org/TR/2001/REC-SVG-20010904/DTD/svg10.dtd">
<svg version="1.0" xmlns="http://www.w3.org/2000/svg"
 width="225.000000pt" height="225.000000pt" viewBox="0 0 225.000000 225.000000"
 preserveAspectRatio="xMidYMid meet">
<metadata>
Created by potrace 1.10, written by Peter Selinger 2001-2011
</metadata>
<g transform="translate(0.000000,225.000000) scale(0.100000,-0.100000)"
fill="#000000" stroke="none">
<path d="M1031 2150 c-139 -30 -309 -113 -403 -198 l-26 -24 -32 53 c-17 30
-33 67 -37 82 -8 39 -25 29 -47 -29 -21 -57 -25 -153 -7 -206 10 -31 10 -44
-5 -85 -25 -73 -30 -225 -10 -315 13 -56 14 -86 7 -118 -7 -31 -6 -55 5 -92
14 -44 14 -55 0 -95 -14 -42 -14 -49 3 -100 13 -39 16 -64 11 -85 -6 -20 -3
-40 11 -72 19 -43 52 -65 138 -91 21 -6 23 -11 17 -49 -18 -115 -18 -181 -2
-220 9 -21 16 -47 16 -56 0 -10 22 -45 50 -77 28 -32 60 -84 73 -117 17 -46
33 -67 67 -93 90 -67 109 -72 275 -69 159 2 160 2 245 61 48 33 70 56 70 72 0
27 42 99 85 148 27 31 49 67 56 95 14 53 17 185 6 251 l-8 46 58 21 c75 28 76
29 102 80 18 35 20 49 12 72 -7 22 -5 40 10 81 19 49 19 54 3 101 -9 27 -13
56 -9 66 18 42 22 85 14 124 -7 30 -6 60 6 109 26 116 16 278 -22 352 -10 21
-11 32 -3 48 20 36 14 168 -9 222 -20 46 -41 62 -41 32 0 -14 -36 -91 -58
-124 -8 -11 -20 -5 -59 26 -160 126 -414 204 -562 173z m274 -48 c56 -18 125
-50 181 -85 117 -73 139 -91 129 -106 -5 -9 -17 -3 -42 21 -24 22 -32 26 -25
12 6 -11 18 -26 26 -34 18 -14 21 -30 6 -30 -14 0 -50 37 -42 44 3 3 1 6 -4 6
-8 0 -48 32 -94 75 -19 17 -149 79 -155 73 -3 -2 20 -17 51 -33 30 -16 60 -35
67 -43 9 -11 3 -11 -23 3 -47 24 -35 13 41 -39 35 -23 62 -46 61 -50 -2 -4 9
-22 25 -38 29 -33 21 -30 -37 10 -34 23 -33 23 5 -12 29 -26 34 -36 21 -34
-31 5 -77 -68 -73 -114 1 -21 0 -38 -3 -38 -3 0 -15 -3 -27 -6 -20 -6 -23 -3
-23 24 0 17 -5 34 -12 38 -7 4 -8 3 -4 -4 4 -7 2 -12 -4 -12 -8 0 -8 -6 0 -20
9 -17 5 -23 -30 -45 -40 -25 -56 -44 -22 -27 9 5 30 12 46 16 28 7 29 7 23
-28 -3 -20 -2 -36 4 -36 5 0 9 13 9 29 0 27 22 62 38 61 4 -1 19 -19 35 -41
15 -22 38 -44 52 -49 28 -11 28 -11 18 -36 -6 -16 -7 -16 -14 2 -6 15 -8 13
-8 -11 -1 -23 -4 -27 -11 -15 -8 12 -10 11 -10 -7 0 -12 -6 -23 -12 -26 -7 -2
-10 -7 -7 -10 3 -4 37 0 75 8 38 8 74 14 79 14 16 -1 -36 -21 -75 -29 l-35 -8
45 -1 c25 -1 52 -6 60 -12 11 -8 5 -9 -25 -5 l-40 6 49 -19 c63 -26 81 -43
111 -107 26 -54 32 -79 16 -70 -5 3 -12 -29 -15 -72 -4 -42 -9 -89 -12 -104
-3 -17 -1 -28 5 -28 6 0 11 14 11 30 0 17 5 30 11 30 7 0 9 12 6 33 l-6 32 19
-35 c10 -19 19 -54 20 -77 0 -43 -15 -67 -23 -36 -3 11 -5 7 -6 -10 0 -16 4
-47 10 -70 11 -44 -4 -102 -33 -124 -39 -30 -179 -69 -175 -49 1 6 -6 10 -15
10 -10 -1 -15 2 -13 7 8 13 -32 30 -73 32 -38 1 -112 -35 -112 -54 0 -6 6 -7
13 -2 6 4 17 8 22 8 6 1 9 7 7 14 -1 7 2 10 8 6 6 -4 2 -20 -10 -43 -11 -20
-20 -50 -20 -67 0 -21 -3 -26 -9 -16 -5 8 -7 21 -4 30 3 12 2 12 -7 -1 -8 -13
-8 -23 0 -39 7 -11 10 -22 8 -23 -2 -1 -11 -7 -20 -15 -15 -11 -16 -9 -13 19
3 20 0 28 -7 24 -7 -4 -8 4 -3 27 5 26 4 30 -4 19 -7 -9 -9 -32 -5 -55 6 -36
5 -38 -10 -26 -14 12 -16 11 -14 -7 2 -11 -1 -22 -7 -24 -5 -2 -13 22 -16 52
l-6 55 -1 -48 c-1 -27 -6 -46 -11 -42 -5 3 -12 -5 -14 -17 -3 -16 -5 -12 -6
12 -1 25 -4 31 -10 20 -7 -10 -11 -1 -14 30 -3 40 -4 38 -5 -15 -2 -72 -24
-114 -50 -93 -14 11 -15 10 -7 -7 5 -11 10 -39 13 -62 3 -32 0 -43 -10 -43
-26 0 -38 24 -38 77 0 45 2 51 17 46 13 -5 15 -2 10 18 -4 13 -7 47 -8 74 -1
34 -3 41 -6 20 -3 -16 -9 -36 -15 -42 -6 -7 -10 -47 -10 -88 -1 -65 -3 -75
-17 -73 -12 2 -17 17 -19 57 -3 45 -1 53 12 48 12 -5 16 0 16 19 0 14 -4 22
-10 19 -6 -4 -10 13 -10 44 0 27 -4 52 -8 55 -4 2 -6 -24 -4 -60 3 -41 1 -64
-6 -64 -18 0 -24 20 -12 35 16 19 5 19 -24 0 -21 -14 -25 -14 -36 0 -7 8 -16
12 -21 9 -5 -3 -9 16 -9 41 0 26 -5 55 -10 66 -16 29 -2 44 21 23 10 -9 19
-14 19 -10 0 12 -42 46 -76 61 -24 11 -40 12 -69 4 -45 -13 -87 -38 -80 -49
12 -19 -140 28 -173 53 -39 30 -50 128 -16 141 8 3 14 16 13 28 -1 22 -1 22
-9 -2 -7 -22 -8 -20 -10 15 -2 34 -3 36 -9 15 -6 -22 -8 -23 -14 -7 -12 31 -8
86 8 117 18 35 25 39 18 10 -3 -11 -1 -26 5 -33 6 -7 13 -25 16 -41 11 -59 16
-37 9 35 -5 41 -8 100 -7 132 0 54 -1 56 -12 30 -9 -20 -13 -23 -13 -10 -2 33
50 127 82 151 18 13 47 27 65 31 18 4 31 9 29 12 -3 2 -22 0 -43 -6 -23 -6
-34 -7 -27 0 5 5 29 13 54 18 28 6 35 9 19 10 -51 3 -74 42 -35 59 18 9 24 8
29 -4 4 -9 -3 -18 -17 -23 -27 -11 -14 -17 61 -26 48 -5 68 4 42 20 -5 3 -10
16 -11 28 0 21 -1 21 -9 2 -7 -17 -9 -16 -10 10 -2 18 -4 23 -7 12 -5 -21 -23
-13 -23 11 0 9 13 23 29 30 35 16 71 83 71 133 0 20 -10 50 -25 72 -14 20 -23
43 -19 50 5 9 4 9 -7 0 -7 -7 -18 -13 -23 -13 -6 0 5 14 24 31 21 18 26 26 13
20 -12 -6 -25 -16 -28 -21 -3 -6 -11 -10 -17 -10 -6 0 -2 10 10 23 12 13 20
26 17 29 -8 7 23 32 89 72 61 37 69 49 14 20 -51 -27 -20 5 38 37 30 17 54 33
54 35 0 10 -126 -50 -150 -72 -54 -49 -86 -74 -94 -74 -5 0 -7 -3 -3 -6 8 -8
-30 -44 -48 -44 -23 0 -18 13 15 40 17 14 30 29 30 34 0 6 -15 -5 -34 -23 -19
-18 -39 -30 -45 -26 -17 10 -6 21 73 74 233 158 391 190 601 123z m-691 -206
c24 -23 62 -50 84 -60 22 -10 45 -28 51 -40 l12 -21 -5 23 c-6 33 8 27 27 -13
22 -47 21 -77 -3 -126 -15 -27 -34 -46 -64 -61 l-44 -21 -45 22 c-25 12 -48
30 -52 39 -6 16 -8 15 -21 -2 -9 -14 -11 -23 -3 -32 7 -8 7 -14 -1 -19 -5 -3
-10 -11 -10 -17 0 -7 4 -7 13 0 10 8 13 6 14 -11 1 -12 -1 -17 -5 -12 -4 6
-14 11 -24 13 -12 2 -15 -3 -11 -19 4 -13 8 -17 13 -9 5 7 9 2 12 -13 3 -14 1
-32 -3 -39 -7 -11 -9 -11 -9 0 0 7 -5 10 -12 6 -6 -4 -8 -3 -5 3 4 6 2 24 -3
41 -5 18 -5 34 0 37 5 3 7 17 4 30 -3 15 0 25 7 25 7 0 9 3 6 7 -4 3 2 13 13
20 17 12 24 12 38 2 10 -8 8 -3 -5 11 -87 100 -124 270 -81 366 12 25 12 25
41 -31 15 -32 48 -76 71 -99z m1140 19 c-1 -84 -29 -164 -82 -233 -19 -26 -28
-41 -18 -33 12 10 20 11 28 3 8 -8 7 -25 -5 -63 -20 -60 -21 -80 -6 -132 9
-34 12 -37 26 -25 15 12 15 11 2 -9 -8 -13 -17 -23 -20 -23 -5 0 -30 44 -35
63 -1 4 -3 10 -4 15 -1 4 -2 11 -1 16 1 4 -4 15 -11 24 -7 9 -8 13 -3 10 6 -4
12 2 13 13 1 10 2 27 3 36 1 9 11 25 21 35 10 10 18 23 18 30 0 6 -8 3 -18 -8
-10 -10 -35 -28 -55 -39 l-36 -19 -46 22 c-35 17 -51 32 -65 65 -24 52 -25 76
-3 122 17 36 37 49 26 18 -5 -16 -4 -16 8 -2 8 9 36 28 62 43 65 37 121 96
149 158 l23 50 14 -33 c9 -20 15 -63 15 -104z m20 -357 c1 -103 -2 -140 -13
-150 -11 -11 -12 -4 -8 44 3 40 2 56 -6 51 -6 -4 -7 -1 -1 8 10 16 12 139 2
133 -4 -3 -7 4 -7 13 0 10 -2 35 -5 56 -9 55 5 68 23 21 11 -28 15 -78 15
-176z m-1259 127 c-1 -30 -5 -58 -10 -62 -4 -5 -5 -3 -1 4 3 6 3 14 -2 17 -11
6 -9 -45 3 -63 5 -9 4 -12 -2 -8 -10 6 -10 -8 -3 -148 l2 -40 13 45 c12 41 13
42 14 15 1 -17 -6 -57 -14 -88 -17 -67 -19 -106 -5 -141 5 -14 5 -28 1 -30 -5
-3 -14 14 -21 39 -10 35 -10 54 0 95 10 41 10 57 -1 83 -19 44 -19 268 0 321
17 49 28 33 26 -39z m90 -121 c-1 -13 1 -21 5 -19 5 3 10 -2 14 -10 3 -8 1
-17 -5 -21 -6 -3 -8 -12 -5 -20 3 -7 1 -16 -5 -19 -5 -4 -7 -10 -5 -14 3 -4
-6 -20 -19 -37 l-23 -29 14 55 c14 51 13 105 -2 145 -6 15 -4 15 13 4 13 -8
20 -21 18 -35z m1002 -21 c0 -16 -2 -22 -4 -15 -3 6 -9 12 -14 12 -6 0 -7 -4
-4 -10 3 -5 0 -10 -7 -10 -8 0 -14 9 -15 19 -1 14 3 18 13 14 8 -3 14 0 14 6
0 6 4 11 9 11 5 0 8 -12 8 -27z m140 -162 c21 -97 23 -120 14 -153 -16 -51
-31 -49 -18 2 8 30 8 55 -2 97 -7 32 -15 77 -18 100 -4 30 -9 40 -19 36 -8 -3
-14 0 -14 7 0 6 5 8 10 5 6 -3 10 -1 10 4 0 6 -4 11 -8 11 -5 0 -9 14 -10 32
l-1 31 15 -29 c9 -16 27 -80 41 -143z m-857 -646 c6 -18 10 -50 10 -71 -1 -22
2 -54 6 -73 5 -24 3 -32 -5 -27 -6 4 -12 17 -12 29 -1 18 -2 19 -6 4 -4 -17
-6 -16 -24 4 -10 12 -19 34 -18 48 0 14 3 20 6 13 8 -20 23 -3 22 26 -1 17 -3
21 -6 10 -7 -28 -23 -21 -23 11 0 15 -9 40 -21 55 -16 21 -17 26 -5 26 8 0 18
-6 23 -12 8 -14 9 -18 12 -45 2 -16 3 -15 11 2 5 14 2 26 -11 41 -28 30 -23
41 6 14 13 -12 29 -37 35 -55z m531 61 c-10 -12 -8 -13 10 -9 l23 6 -22 -28
c-12 -15 -22 -41 -22 -56 0 -31 -19 -41 -21 -11 -1 9 -5 4 -10 -13 -7 -24 -7
-20 -4 20 2 34 1 44 -5 30 -10 -23 -13 -85 -4 -85 3 0 15 5 26 11 20 11 21 9
15 -20 -4 -18 -13 -39 -21 -47 -13 -12 -15 -11 -19 8 -4 20 -4 20 -6 -4 0 -15
-6 -30 -12 -34 -8 -5 -10 3 -5 27 4 19 7 52 6 75 -1 49 14 91 42 122 23 24 48
31 29 8z m-630 -101 c1 -50 8 -102 16 -117 15 -31 17 -41 5 -34 -5 3 -4 -10 2
-29 7 -22 14 -31 20 -25 7 7 6 14 -2 22 -7 7 -12 16 -12 22 0 5 7 1 15 -10 12
-16 14 -16 15 -3 0 9 -7 22 -15 29 -18 15 -20 46 -3 56 8 5 9 0 5 -15 -5 -19
-3 -20 11 -9 13 11 15 10 10 -10 -4 -13 -2 -20 3 -16 18 11 36 -15 31 -44 -3
-15 -9 -30 -13 -33 -5 -3 -2 -14 6 -25 13 -18 14 -16 15 24 0 31 4 42 16 42
12 0 14 -7 10 -32 -5 -30 -5 -31 6 -10 17 33 40 30 27 -5 -5 -14 -8 -32 -5
-40 3 -7 -1 -13 -9 -13 -8 0 -15 7 -15 15 0 9 -6 12 -15 9 -12 -5 -13 -10 -4
-20 13 -16 74 -55 92 -58 13 -3 37 -12 75 -27 42 -17 75 -9 217 47 18 7 19 6
6 -10 -11 -13 -11 -20 -3 -28 9 -9 12 -7 14 8 0 10 2 24 2 31 1 6 9 20 18 30
10 11 14 23 9 29 -5 5 -11 24 -14 42 -5 24 -3 32 7 32 8 0 17 -6 20 -12 4 -7
4 -3 2 10 -3 14 1 22 10 22 9 0 14 -11 14 -32 0 -24 3 -29 11 -21 8 8 7 20 -5
43 -14 28 -14 31 0 26 12 -4 14 -1 9 14 -7 22 10 28 19 8 3 -7 3 -2 0 11 -4
17 -3 21 6 16 7 -5 10 -19 6 -37 -4 -19 -2 -27 5 -22 11 7 -10 -36 -37 -73
-11 -16 -13 -23 -4 -23 6 0 14 9 17 20 3 11 9 20 14 20 5 0 9 7 9 15 0 8 5 15
11 15 7 0 9 10 5 25 -4 16 -1 34 9 48 17 24 20 41 6 32 -6 -3 -8 10 -6 32 1
21 4 58 5 83 l3 45 6 -40 c3 -22 6 -72 6 -112 0 -39 4 -69 9 -66 5 3 6 55 3
115 -5 88 -3 107 7 99 7 -6 16 -8 20 -4 4 4 5 -13 2 -37 -4 -34 -3 -39 3 -20
8 23 9 21 11 -15 2 -35 3 -37 9 -15 7 21 9 15 16 -32 4 -32 5 -72 3 -90 -3
-18 -1 -47 4 -66 12 -44 5 -63 -54 -133 -27 -33 -57 -81 -65 -107 -17 -52 -30
-72 -45 -72 -7 0 -7 4 0 13 6 6 19 35 30 63 10 28 42 79 71 113 54 65 61 93
40 166 -5 21 -7 11 -4 -35 3 -46 1 -56 -4 -35 l-9 30 -1 -37 c0 -21 -5 -38
-10 -38 -4 0 -6 12 -4 28 4 21 2 24 -6 12 -6 -8 -11 -26 -12 -40 0 -23 -1 -23
-9 -5 -8 17 -9 16 -11 -10 -2 -28 -2 -28 -7 -5 -3 19 -8 9 -18 -39 -7 -35 -30
-98 -51 -140 -33 -65 -44 -79 -83 -98 -40 -21 -59 -23 -184 -23 -185 0 -211
11 -262 112 -20 39 -44 103 -54 142 -13 53 -19 65 -23 46 -4 -23 -4 -23 -6 5
-2 26 -3 27 -11 10 -8 -18 -9 -18 -9 5 -1 19 -3 22 -11 10 -14 -22 -24 13 -25
82 0 67 -12 54 -21 -23 -6 -53 -5 -55 44 -112 27 -32 57 -77 67 -100 9 -23 23
-55 31 -70 10 -20 10 -27 2 -25 -6 2 -24 34 -38 71 -16 38 -47 88 -74 118 -42
47 -52 68 -46 94 2 6 3 51 2 100 0 64 2 83 9 65 7 -19 8 -15 4 18 -3 25 -1 42
5 42 5 0 11 12 11 28 2 21 3 18 9 -13 l7 -40 2 50 c2 37 5 45 10 30 8 -19 9
-18 13 5 3 14 3 -18 0 -71 -3 -53 -1 -103 4 -112 7 -11 10 8 11 61 1 123 3
156 7 151 3 -2 6 -45 7 -94z m-108 18 c-4 -21 -7 -77 -7 -125 0 -48 -4 -82 -8
-75 -16 26 -4 237 14 237 5 0 6 -16 1 -37z m906 -103 c0 -47 -3 -90 -7 -96 -4
-7 -7 45 -8 115 0 69 3 113 7 96 3 -16 7 -68 8 -115z m-645 -6 c3 -9 6 -32 6
-51 0 -30 -2 -34 -15 -23 -9 7 -15 29 -15 51 0 40 13 52 24 23z m386 -23 c0
-22 -6 -44 -15 -51 -13 -11 -15 -6 -15 32 0 25 3 48 7 51 15 16 23 5 23 -32z
m-332 2 c14 -32 15 -53 3 -72 -16 -25 -41 6 -41 49 0 56 17 67 38 23z m290
-17 c5 -54 -29 -90 -43 -46 -8 24 15 92 30 87 5 -2 11 -20 13 -41z m-58 -25
c0 -46 -18 -80 -33 -64 -11 10 -8 72 3 94 18 33 30 21 30 -30z m-60 -71 c-6
-11 -17 -20 -25 -20 -30 0 -14 101 19 122 15 10 20 -75 6 -102z m148 -10 c2
-18 -1 -37 -7 -43 -8 -8 -11 -6 -11 5 0 8 -3 30 -7 48 -5 25 -3 32 8 28 8 -2
15 -19 17 -38z m-308 -31 c0 -43 -3 -50 -16 -45 -9 3 -18 6 -20 6 -2 0 -4 20
-4 45 0 38 3 45 20 45 17 0 20 -7 20 -51z m276 25 c6 -24 -11 -74 -26 -74 -8
0 -20 50 -20 81 0 30 38 24 46 -7z m-242 0 c16 -6 23 -73 9 -87 -14 -14 -33
17 -33 54 0 42 0 42 24 33z m176 -80 c-19 -21 -30 -7 -30 38 0 32 3 39 15 34
8 -3 16 0 17 7 1 7 3 -5 5 -26 3 -21 -1 -45 -7 -53z m-99 27 l2 -36 6 35 c5
27 11 36 29 37 19 2 22 -2 22 -37 0 -22 -4 -41 -10 -41 -28 -4 -76 -5 -85 -2
-5 2 -11 21 -13 42 -2 35 0 39 23 39 22 0 25 -5 26 -37z"/>
<path d="M1025 2100 c-12 -5 4 -6 40 -3 33 3 62 7 64 9 9 8 -85 2 -104 -6z"/>
<path d="M1111 1931 c-1 -42 2 -52 11 -43 8 8 8 23 1 54 l-11 43 -1 -54z"/>
<path d="M1118 1730 c-3 -69 -3 -156 1 -195 l7 -70 6 75 c3 41 3 129 0 195
l-7 120 -7 -125z"/>
<path d="M881 1481 l24 -19 -46 5 c-29 3 -49 1 -53 -6 -5 -7 -1 -9 9 -5 26 10
80 -5 116 -32 33 -26 33 -26 7 -20 -48 11 -30 -2 25 -18 63 -19 120 -53 112
-66 -4 -6 -11 -7 -17 -4 -7 4 -8 2 -4 -5 4 -6 11 -9 15 -7 4 3 8 -1 8 -9 0 -8
-4 -15 -9 -15 -5 0 -7 -4 -4 -8 2 -4 -4 -9 -15 -9 -10 -1 -19 2 -19 8 0 5 3 8
8 6 4 -1 8 3 10 8 1 6 -7 11 -18 11 -11 1 -22 3 -25 4 -3 1 -8 3 -12 4 -5 1
-15 6 -23 11 -43 27 -44 7 -2 -42 26 -30 90 -37 119 -13 12 10 19 21 15 25 -4
4 4 4 17 0 18 -5 22 -4 16 5 -6 9 -4 11 4 6 7 -5 10 -10 7 -13 -3 -4 4 -15 16
-25 18 -15 31 -18 62 -12 38 6 63 26 88 69 10 18 10 19 -5 6 -10 -7 -17 -10
-17 -6 0 5 -9 0 -20 -10 -11 -10 -20 -15 -20 -10 0 4 -6 2 -14 -4 -10 -8 -16
-9 -21 -1 -3 6 -11 8 -16 4 -5 -3 -7 -10 -3 -15 3 -5 10 -7 15 -4 5 4 9 1 9
-4 0 -19 -19 -12 -36 14 -9 14 -14 31 -11 40 7 17 98 65 125 65 10 0 27 7 38
15 18 14 17 15 -8 5 -22 -7 -26 -6 -22 5 6 15 71 42 119 49 17 2 6 3 -23 3
-52 -2 -53 -2 -31 16 12 10 16 17 8 17 -7 0 -26 -12 -42 -27 -15 -16 -38 -28
-49 -28 -12 0 -23 -7 -25 -15 -4 -13 -3 -13 6 0 6 8 11 10 11 4 0 -19 -13 -24
-28 -11 -9 6 -13 7 -10 2 4 -6 -2 -16 -12 -23 -17 -10 -21 -8 -29 21 l-9 32
-1 -29 c-1 -16 -11 -49 -23 -73 -18 -36 -24 -41 -29 -26 -4 10 -8 34 -9 53 -2
36 -4 32 -15 -34 l-6 -39 -21 33 c-11 18 -23 51 -28 74 -6 32 -8 35 -9 14 -1
-31 -27 -39 -37 -13 -5 11 -10 13 -19 5 -10 -8 -18 -4 -35 17 -12 15 -18 21
-14 13 4 -8 -9 0 -27 18 -19 17 -41 32 -48 32 -7 0 -3 -9 10 -19z m115 -197
c-5 15 -4 17 7 8 8 -7 16 -11 18 -9 2 1 -2 -4 -10 -10 -12 -11 -19 -9 -38 9
-13 12 -23 26 -23 32 1 6 12 -2 26 -19 17 -19 24 -23 20 -11z"/>
<path d="M615 1367 c-22 -20 -25 -25 -10 -20 19 6 19 5 -2 -19 -13 -13 -23
-28 -23 -34 0 -5 6 -2 13 6 34 43 87 72 132 72 39 0 44 2 34 14 -8 10 -28 14
-63 12 -39 -2 -58 -9 -81 -31z"/>
<path d="M1495 1384 c-20 -15 -19 -15 5 -13 57 5 79 -2 121 -41 l44 -41 -46
32 c-29 19 -64 33 -92 36 -46 6 -61 0 -162 -61 l-30 -18 28 26 c15 14 25 26
22 26 -3 0 6 11 21 25 15 14 32 25 37 25 6 0 8 3 5 6 -15 14 -90 -41 -133 -96
-41 -54 -50 -60 -83 -61 -20 0 -46 -2 -58 -3 -13 -2 -21 3 -20 12 1 8 -7 19
-17 26 -15 9 -21 7 -35 -11 -18 -23 -28 -26 -84 -24 -33 1 -42 8 -83 61 -43
55 -118 110 -133 96 -3 -3 -1 -6 5 -6 5 0 22 -11 37 -25 15 -14 24 -25 21 -25
-3 0 7 -12 22 -26 31 -28 24 -26 -56 23 -36 21 -68 33 -91 33 -51 0 -117 -37
-150 -85 -25 -34 -28 -46 -21 -80 6 -35 8 -37 15 -18 4 13 4 28 0 34 -4 8 -3
9 4 5 8 -5 12 2 12 18 0 14 14 41 31 60 25 29 33 33 48 24 14 -8 26 -7 51 6
41 20 44 20 36 0 -4 -12 -2 -15 9 -10 8 3 25 1 37 -5 l23 -10 -22 5 c-13 2
-23 0 -23 -6 0 -6 14 -8 36 -3 24 4 34 3 29 -4 -3 -6 1 -11 9 -11 17 0 40 -35
32 -49 -3 -4 1 -8 9 -8 11 0 12 5 4 20 -17 30 -3 31 23 2 33 -38 58 -50 70
-34 8 11 9 10 4 -3 -3 -10 -1 -20 5 -23 5 -4 7 -11 4 -16 -4 -5 -1 -9 5 -9 6
0 15 10 20 23 8 20 9 20 9 2 0 -11 -10 -30 -24 -43 -13 -13 -21 -30 -18 -38 3
-7 1 -14 -5 -14 -6 0 -24 -14 -42 -31 -17 -17 -52 -39 -78 -50 -26 -10 -39
-18 -30 -19 9 0 28 4 42 9 17 7 26 7 29 -2 2 -7 11 2 19 18 9 17 25 38 36 48
19 17 20 17 27 0 15 -34 14 -47 -6 -75 -11 -15 -16 -28 -10 -28 5 0 20 22 33
49 12 27 26 47 30 45 4 -3 8 3 8 13 0 10 9 36 20 58 23 46 24 49 8 39 -10 -6
-10 -5 -1 8 7 8 10 17 7 21 -3 3 2 17 12 32 l18 27 18 -24 c10 -12 16 -28 14
-34 -3 -6 1 -17 7 -24 9 -10 9 -11 0 -6 -15 8 -18 -10 -3 -19 6 -3 15 -26 21
-50 6 -25 15 -43 19 -40 5 3 13 -10 20 -29 6 -18 20 -42 32 -52 l21 -19 -19
30 c-18 27 -18 29 -1 22 12 -4 16 -3 12 4 -4 6 -13 8 -21 5 -17 -7 -17 11 -1
42 l13 23 21 -23 c11 -13 26 -34 33 -48 8 -14 15 -20 17 -13 3 9 12 9 29 2 14
-5 33 -9 42 -8 9 0 0 7 -21 14 -20 8 -59 32 -85 55 -54 45 -67 49 -59 20 9
-33 -11 -12 -31 33 -28 64 -34 94 -18 94 8 0 12 -6 9 -13 -8 -21 28 -93 43
-87 9 3 6 12 -11 31 -14 15 -25 34 -25 42 1 12 3 11 11 -2 13 -24 33 -23 26 1
-4 15 0 18 19 16 13 -1 23 1 22 4 -3 26 3 33 17 21 13 -11 14 -10 9 4 -3 9 -1
16 5 16 6 0 11 7 11 16 0 8 4 13 9 10 11 -7 71 13 71 25 0 4 7 6 16 2 9 -3 23
3 35 16 19 20 46 30 35 13 -3 -5 8 -6 24 -4 17 2 27 8 24 13 -3 5 -1 9 5 9 20
0 23 -22 5 -36 -18 -14 -18 -15 2 -5 19 9 21 5 33 -50 l14 -60 -29 -31 c-37
-38 -88 -62 -112 -50 -25 14 -46 4 -31 -14 10 -13 8 -13 -15 -4 -18 6 -25 6
-21 0 9 -14 -7 -12 -27 4 -22 16 -23 27 -3 20 8 -4 15 -2 15 3 0 5 -12 9 -27
10 -43 1 -69 8 -87 22 -30 25 -16 -7 18 -41 35 -35 50 -40 126 -39 25 1 75 -8
113 -19 61 -19 70 -19 95 -6 15 8 23 15 19 16 -4 0 -3 10 3 23 10 19 9 20 -2
6 -17 -21 -81 -39 -98 -29 -8 5 -2 10 18 15 40 8 50 22 68 87 19 74 18 102 -8
124 l-22 19 17 -25 c9 -13 17 -38 16 -55 -1 -29 -1 -29 -11 8 -6 20 -15 37
-20 37 -6 0 -8 11 -4 24 4 15 1 26 -7 29 -8 4 -8 6 -1 6 19 1 74 -67 74 -92 1
-12 7 -33 14 -46 13 -24 13 -24 18 13 2 22 -1 45 -10 57 -7 10 -10 24 -7 30 4
6 -4 22 -16 36 -22 24 -22 26 -4 19 17 -6 16 -3 -6 20 -33 33 -112 43 -144 18z
m-402 -166 c-5 -7 -20 -41 -32 -75 -25 -68 -61 -115 -39 -52 6 19 17 43 25 54
7 11 13 26 13 34 0 8 7 23 17 33 18 20 31 25 16 6z m491 -100 c-29 -35 -36
-38 -84 -37 l-45 0 45 13 c25 6 57 19 70 29 33 23 37 21 14 -5z"/>
<path d="M642 1290 c-13 -17 -22 -42 -21 -62 l1 -33 8 38 c4 21 13 43 20 50
10 10 12 9 7 -5 -23 -64 -27 -100 -17 -137 12 -44 23 -56 65 -67 l30 -8 -25
-6 c-14 -4 -31 -2 -38 3 -7 5 -15 7 -19 4 -3 -4 -12 -2 -20 4 -9 8 -13 8 -13
0 0 -6 10 -17 23 -26 21 -13 29 -13 78 2 30 9 83 18 119 20 99 5 100 5 134 39
36 36 40 70 11 86 -17 10 -18 9 -8 -3 10 -12 10 -18 0 -29 -9 -10 -9 -11 0 -6
9 5 11 2 7 -9 -4 -9 -9 -13 -12 -10 -3 3 -14 -2 -24 -11 -14 -13 -21 -14 -32
-5 -11 9 -14 8 -12 -6 1 -13 -5 -17 -21 -15 -13 2 -23 -1 -23 -7 0 -13 -51 5
-62 22 -5 9 -10 9 -19 0 -6 -6 -18 -9 -26 -6 -12 5 -12 7 -1 15 9 7 7 8 -9 5
-13 -3 -23 -1 -23 4 0 5 -8 9 -18 9 -22 0 -48 57 -36 79 10 16 11 87 2 96 -2
3 -14 -9 -26 -25z m108 -198 l45 -10 -47 -1 c-36 -1 -53 4 -68 19 -28 28 -25
48 3 23 12 -12 42 -26 67 -31z"/>
<path d="M1053 983 l-42 -126 20 -39 c14 -28 26 -38 44 -38 20 0 26 7 36 43 7
23 11 52 11 65 -1 13 2 20 8 17 6 -4 7 -11 4 -17 -5 -7 -2 -8 6 -3 9 6 11 4 6
-6 -4 -8 0 -5 8 5 9 11 16 25 16 30 0 6 -5 4 -10 -4 -8 -13 -11 -13 -19 -1 -5
7 -13 11 -19 7 -6 -3 -12 0 -15 6 -3 7 -3 -4 -1 -26 1 -21 0 -35 -3 -32 -3 3
-15 1 -26 -5 -14 -8 -18 -8 -13 0 4 6 3 11 -3 11 -5 0 -8 8 -6 18 2 9 4 22 4
27 1 6 5 4 10 -4 5 -8 6 -21 3 -30 -5 -14 -4 -14 12 -2 11 10 13 16 6 21 -11
7 -5 55 10 75 4 6 4 19 0 30 -6 17 -8 16 -14 -9 -4 -16 -9 -26 -12 -23 -4 3 0
22 6 43 l13 37 13 -29 14 -29 -4 27 c-2 16 3 33 10 39 10 8 12 1 9 -40 -3 -45
-2 -49 11 -36 9 9 12 24 9 42 -4 20 -3 23 3 13 5 -8 12 -28 15 -45 4 -16 4
-24 1 -17 -3 6 -10 10 -15 7 -10 -7 21 -75 34 -75 5 0 3 -8 -4 -17 -12 -14
-12 -16 0 -8 9 5 12 4 7 -3 -3 -6 1 -15 9 -20 14 -7 14 -13 4 -35 -15 -34 -36
-41 -49 -17 -14 26 -13 27 13 26 13 -1 22 5 22 14 0 10 -11 15 -33 16 -32 1
-32 0 -26 -35 9 -48 11 -51 40 -51 20 0 29 9 43 41 l19 41 -42 121 c-22 67
-42 124 -43 126 -2 2 -9 -2 -17 -8 -10 -8 -16 -9 -21 -1 -3 5 -9 10 -13 10 -4
-1 -26 -58 -49 -127z m31 -150 c19 7 20 3 6 -23 -13 -24 -34 -17 -49 16 -17
38 -13 52 8 25 12 -16 24 -22 35 -18z"/>
<path d="M589 1003 c3 -27 6 -40 9 -30 2 13 9 16 20 12 24 -10 135 -25 141
-20 2 3 -1 5 -8 5 -7 0 -10 4 -6 9 3 5 -9 9 -27 8 -41 -2 -98 20 -118 45 -14
17 -15 14 -11 -29z"/>
<path d="M860 1040 c19 -6 9 -8 -37 -9 -34 -1 -64 -5 -67 -10 -3 -4 6 -6 21
-3 20 4 24 2 18 -8 -6 -10 -4 -12 8 -7 9 3 35 11 58 17 31 9 39 14 28 21 -8 5
-23 8 -34 8 -16 -1 -16 -2 5 -9z"/>
<path d="M1648 1031 c-8 -12 -18 -18 -21 -14 -4 3 -7 2 -7 -4 0 -12 -37 -26
-59 -23 -7 1 -20 -2 -30 -6 -9 -4 -22 -8 -29 -10 -8 -1 -17 -6 -20 -9 -9 -9
83 4 127 17 25 8 35 7 41 -2 4 -7 10 4 13 26 8 46 4 52 -15 25z"/>
<path d="M1372 1024 c2 -1 23 -7 46 -12 29 -7 40 -7 35 1 -4 6 3 8 21 3 18 -4
25 -3 21 3 -3 6 -33 10 -66 10 -33 -1 -59 -3 -57 -5z"/>
<path d="M1716 960 c3 -40 1 -48 -5 -30 l-9 25 -2 -25 c-1 -23 -2 -24 -10 -5
-6 14 -8 7 -5 -25 4 -35 3 -39 -4 -20 -9 25 -9 25 -10 -5 l-2 -30 -14 30 -14
30 5 -35 c3 -27 2 -31 -5 -15 -9 19 -10 18 -11 -5 l-2 -25 -8 25 -8 25 -2 -25
c-2 -21 -3 -22 -7 -5 -8 33 -20 38 -15 6 5 -37 -15 -50 -28 -17 -12 32 -20 34
-14 4 2 -13 2 -17 -2 -10 -3 6 -10 10 -15 6 -5 -3 -9 -1 -9 4 0 5 -6 9 -12 10
-7 0 -23 3 -35 6 -13 2 -23 1 -23 -5 0 -5 7 -9 16 -9 8 0 35 -11 58 -25 l43
-25 64 24 c45 17 69 32 81 52 19 30 23 95 8 129 -5 13 -7 1 -4 -35z"/>
<path d="M1280 988 c0 -9 7 -21 15 -28 8 -7 12 -16 9 -21 -3 -5 2 -6 11 -3 14
6 13 10 -7 33 -13 14 -24 28 -25 30 -2 2 -3 -3 -3 -11z"/>
<path d="M521 930 c-2 -57 26 -89 98 -116 l64 -24 43 25 c23 14 50 25 58 25 9
0 16 4 16 9 0 5 -11 8 -25 7 -14 0 -25 -5 -25 -9 0 -5 -4 -5 -10 -2 -5 3 -10
1 -10 -5 0 -6 -4 -8 -10 -5 -5 3 -10 0 -11 -7 0 -7 -4 -4 -9 7 -9 20 -9 20
-10 0 -1 -20 -1 -20 -10 0 -7 16 -9 17 -9 3 -1 -9 -5 -19 -9 -22 -5 -3 -7 9
-5 27 2 29 2 30 -6 7 l-9 -25 -2 25 -2 25 -8 -25 -8 -25 -2 25 c-1 23 -2 24
-11 5 -7 -16 -8 -12 -5 15 l5 35 -14 -30 -14 -30 -2 30 c-1 30 -1 30 -9 5 l-8
-25 -1 25 c-1 19 -4 21 -10 11 -7 -10 -12 -2 -19 30 -10 44 -10 44 -11 9z"/>
<path d="M992 915 c-25 -53 -28 -92 -7 -119 8 -11 15 -16 15 -11 0 4 10 0 22
-11 18 -16 17 -13 -5 21 -31 45 -34 83 -11 126 8 17 14 33 12 35 -2 2 -14 -17
-26 -41z"/>
<path d="M1234 950 c2 -8 11 -31 20 -52 15 -35 14 -38 -10 -84 -16 -30 -19
-43 -10 -35 13 11 16 11 16 0 1 -8 7 -3 15 11 21 37 17 79 -11 130 -14 25 -23
38 -20 30z"/>
<path d="M906 922 c-3 -5 -31 -7 -63 -6 -32 1 -47 0 -33 -3 14 -3 36 -13 50
-23 32 -22 70 -34 70 -22 0 5 -10 12 -22 15 -21 6 -21 7 -3 27 10 11 15 20 12
20 -3 0 -8 -4 -11 -8z"/>
<path d="M1339 911 l24 -19 -21 -6 c-12 -4 -22 -12 -22 -18 0 -5 7 -7 16 -4 9
3 19 6 24 6 5 0 16 7 25 16 9 9 31 20 48 24 29 7 28 8 -18 10 -27 1 -61 3 -75
6 l-25 4 24 -19z"/>
<path d="M1123 745 c0 -33 2 -45 4 -27 2 18 2 45 0 60 -2 15 -4 0 -4 -33z"/>
<path d="M975 740 c-4 -6 -11 -8 -16 -5 -5 4 -5 -5 1 -20 12 -33 13 -48 1 -41
-5 4 -7 -3 -4 -15 5 -19 7 -20 16 -4 5 9 7 30 3 46 -4 20 -1 31 12 38 9 6 12
11 5 11 -6 0 -15 -5 -18 -10z"/>
<path d="M1100 614 c0 -6 6 -18 13 -29 14 -18 18 -16 31 19 5 15 4 17 -7 8
-10 -9 -17 -8 -25 0 -7 7 -12 8 -12 2z"/>
<path d="M505 1907 c2 -55 9 -82 39 -141 20 -42 53 -89 76 -110 22 -20 34 -36
28 -36 -8 0 -6 -4 3 -10 22 -13 77 10 104 42 15 17 16 19 3 9 -11 -8 -18 -9
-18 -3 0 6 5 14 10 17 6 3 10 12 10 18 0 7 -5 4 -11 -5 -5 -10 -14 -18 -20
-18 -5 0 -2 12 7 28 l16 27 -19 -23 c-19 -23 -19 -23 -37 -3 -10 11 -15 25
-10 32 4 7 3 10 -3 6 -11 -7 -31 10 -32 28 -1 12 -18 12 -44 0 -15 -6 -16 -10
-5 -17 11 -8 11 -9 0 -6 -8 2 -12 7 -10 10 2 4 -6 14 -17 22 -11 9 -16 16 -11
16 6 0 1 7 -10 15 -10 8 -15 15 -10 15 5 0 2 7 -5 17 -13 15 -12 15 11 3 17
-9 21 -15 11 -18 -10 -3 -7 -9 10 -18 15 -8 18 -13 9 -14 -13 0 -13 -1 0 -10
9 -5 19 -5 27 2 18 15 -3 39 -25 31 -15 -6 -15 -5 -3 10 7 9 12 17 10 18 -2 0
-12 2 -22 4 -35 7 -56 36 -60 84 -2 25 -3 15 -2 -22z m141 -158 c0 -10 -3 -16
-6 -14 -4 2 -7 -2 -7 -10 0 -11 5 -12 21 -3 12 6 18 7 14 3 -4 -4 5 -18 19
-31 14 -13 22 -24 17 -24 -5 -1 2 -7 15 -14 16 -9 20 -15 12 -21 -7 -4 -20 1
-31 13 -11 11 -29 23 -40 27 -18 6 -19 9 -8 22 12 15 10 15 -11 4 -13 -7 -21
-8 -17 -3 3 6 -3 14 -15 17 -17 6 -19 9 -8 16 8 4 15 13 15 19 2 16 3 17 17
17 7 0 13 -8 13 -18z"/>
<path d="M590 1882 c0 -15 68 -69 94 -75 20 -5 20 -5 2 6 -11 7 -37 27 -58 46
-21 18 -38 29 -38 23z"/>
<path d="M1730 1931 c0 -45 -3 -53 -35 -77 -19 -14 -32 -30 -29 -35 3 -6 -6
-8 -19 -5 -15 3 -24 0 -23 -7 3 -23 17 -36 32 -30 12 4 13 8 4 13 -9 5 -5 10
10 15 16 5 19 9 10 15 -9 6 -6 11 11 21 21 11 22 10 12 -3 -7 -8 -10 -18 -6
-21 3 -4 -2 -9 -11 -13 -9 -3 -14 -10 -11 -15 8 -12 -34 -32 -48 -22 -18 14
-42 9 -39 -7 4 -20 -20 -31 -38 -17 -13 11 -13 10 -1 -6 12 -15 11 -20 -5 -38
l-18 -20 -19 23 -19 23 15 -26 c19 -32 4 -57 -22 -36 -9 6 -7 1 4 -11 27 -32
82 -55 104 -42 9 5 11 10 4 10 -7 0 7 18 31 40 59 55 107 161 114 251 2 38 2
69 -2 69 -3 0 -6 -22 -6 -49z m-103 -174 c6 -4 19 -4 30 0 23 8 15 -1 -16 -17
-18 -9 -22 -9 -16 0 6 9 2 9 -14 1 -24 -13 -25 -17 -9 -27 6 -4 8 -3 5 3 -4 6
4 10 21 10 15 0 21 -2 14 -4 -6 -3 -10 -9 -7 -14 4 -5 -1 -6 -9 -3 -9 3 -16 1
-16 -5 0 -6 -16 -19 -35 -28 -19 -9 -32 -20 -30 -24 8 -12 -28 -20 -39 -9 -8
8 -6 9 8 4 13 -5 17 -4 12 4 -4 7 -2 12 5 12 7 0 10 3 6 6 -3 3 3 15 13 27 17
17 22 18 37 6 17 -13 17 -13 0 7 -16 20 -16 22 -1 28 9 3 14 12 11 20 -6 14 9
16 30 3z"/>
<path d="M1685 1916 c-10 -20 -21 -34 -25 -31 -5 3 -24 -7 -42 -23 -18 -16
-44 -35 -56 -41 -13 -7 -21 -15 -18 -18 7 -7 52 21 88 54 14 14 30 24 35 22
10 -3 48 60 40 67 -3 3 -13 -10 -22 -30z"/>
<path d="M846 495 c-6 -18 2 -45 15 -45 5 0 9 -6 9 -14 0 -8 7 -16 15 -20 8
-3 15 -12 15 -20 0 -7 8 -13 17 -12 10 0 19 -9 23 -24 6 -20 9 -22 14 -9 5 12
-7 30 -43 64 -41 39 -50 52 -45 71 7 26 -10 34 -20 9z"/>
<path d="M1356 464 c-3 -9 -3 -21 0 -26 4 -6 -1 -17 -11 -25 -15 -10 -16 -16
-7 -25 9 -9 12 -8 12 5 0 10 6 20 14 23 9 3 14 18 14 35 -1 32 -12 38 -22 13z"/>
<path d="M870 371 c0 -6 16 -28 36 -49 34 -36 35 -36 21 -7 -17 34 -57 74 -57
56z"/>
<path d="M1346 347 c-29 -38 -32 -49 -13 -41 15 6 51 63 44 70 -3 3 -17 -10
-31 -29z"/>
<path d="M977 348 c6 -7 15 -26 21 -43 l10 -30 1 36 c1 25 -4 39 -15 43 -23 9
-28 7 -17 -6z"/>
<path d="M1258 353 c-12 -3 -18 -14 -18 -34 0 -18 4 -28 10 -24 6 3 10 14 10
24 0 9 5 22 12 29 7 7 10 11 8 11 -3 -1 -13 -3 -22 -6z"/>
<path d="M856 302 c0 -21 13 -61 28 -90 38 -75 64 -85 241 -86 184 -1 203 8
257 114 20 41 37 82 37 90 0 8 -6 2 -15 -15 l-14 -30 5 30 c4 25 3 27 -5 12
-6 -9 -8 -27 -5 -38 5 -15 4 -19 -4 -15 -6 4 -11 2 -11 -4 0 -6 -4 -8 -10 -5
-5 3 -10 -1 -10 -10 0 -9 -4 -13 -10 -10 -6 3 -7 -1 -4 -9 3 -9 1 -16 -5 -16
-6 0 -11 -8 -11 -17 0 -14 -2 -15 -9 -4 -7 11 -11 8 -17 -10 -4 -13 -7 -28 -5
-34 1 -5 -3 -5 -9 1 -9 9 -9 18 0 35 l13 24 -27 -25 c-25 -23 -37 -25 -130
-28 -95 -2 -106 0 -138 22 -27 18 -39 21 -47 13 -9 -9 -13 -6 -17 11 -4 12
-10 19 -15 16 -5 -2 -11 7 -15 21 -3 13 -10 23 -15 20 -4 -3 -11 10 -15 30 -9
48 -19 52 -18 7z"/>
<path d="M1049 313 c5 -10 10 -22 11 -28 4 -20 8 -15 12 15 4 24 1 30 -14 30
-15 0 -17 -4 -9 -17z"/>
<path d="M1181 293 l1 -38 10 30 c6 17 16 33 22 37 6 5 1 8 -11 8 -20 0 -23
-5 -22 -37z"/>
<path d="M1109 289 l15 -27 18 23 c24 31 23 32 -15 31 -33 -1 -33 -1 -18 -27z"/>
<path d="M1050 230 c-14 -4 -19 -8 -12 -9 7 -1 11 -5 8 -9 -2 -4 37 -8 87 -8
51 0 83 2 73 4 -15 3 -16 6 -5 14 10 6 3 7 -21 3 -26 -5 -31 -4 -20 4 18 13
-71 14 -110 1z"/>
</g>
</svg>
